<svg xmlns="http://www.w3.org/2000/svg" viewBox="0 0 120 120" role="img" aria-labelledby="title">
  <title id="title">草帽航海标志</title>
  <g fill="none" stroke="#171020" stroke-linecap="round" stroke-linejoin="round">
    <path stroke-width="8" d="M19 94 101 43M19 43l82 51"/>
    <circle cx="60" cy="62" r="30" fill="#fff7e6" stroke-width="7"/>
    <path fill="#171020" stroke="none" d="M44 59c0-6 5-10 11-8 4 2 5 8 1 12-4 4-12 2-12-4Zm20 0c0-6 5-10 11-8 4 2 5 8 1 12-4 4-12 2-12-4ZM57 68h6l4 11H53l4-11Z"/>
    <path stroke-width="6" d="M45 84h30M50 78v10m10-10v10m10-10v10"/>
    <path fill="#f4c45e" stroke-width="6" d="M24 48c8-20 64-20 72 0-16 8-56 8-72 0Z"/>
    <path stroke="#e75b63" stroke-width="7" d="M33 42c17 5 37 5 54 0"/>
  </g>
</svg>
